<svg width="43" height="43" viewBox="0 0 43 43" fill="none" xmlns="http://www.w3.org/2000/svg">
<path d="M26.3124 20.6266L11.4385 18.0063V37.3684C11.4387 37.5787 11.4803 37.7869 11.5609 37.9812C11.6416 38.1755 11.7597 38.352 11.9086 38.5006C12.0574 38.6492 12.2341 38.767 12.4285 38.8473C12.6229 38.9277 12.8312 38.9689 13.0416 38.9688H38.7072C38.9178 38.9693 39.1264 38.9283 39.3211 38.8481C39.5158 38.7679 39.6928 38.6502 39.8419 38.5015C39.9911 38.3529 40.1095 38.1763 40.1903 37.9818C40.2711 37.7874 40.3128 37.5789 40.313 37.3684V30.2344L26.3124 20.6266Z" fill="#185C37"/>
<path d="M26.3124 4.03125H13.0416C12.8312 4.03107 12.6229 4.07233 12.4285 4.15266C12.2341 4.23299 12.0574 4.35083 11.9086 4.49944C11.7597 4.64805 11.6416 4.82453 11.5609 5.0188C11.4803 5.21306 11.4387 5.42131 11.4385 5.63166V12.7656L26.3124 21.5L34.1882 24.1203L40.313 21.5V12.7656L26.3124 4.03125Z" fill="#21A366"/>
<path d="M11.4385 12.7656H26.3124V21.5H11.4385V12.7656Z" fill="#107C41"/>
<path opacity="0.1" d="M22.0837 11.0187H11.4385V32.8547H22.0837C22.5078 32.8526 22.9141 32.6834 23.2144 32.3838C23.5147 32.0843 23.6849 31.6784 23.6881 31.2543V12.6191C23.6849 12.195 23.5147 11.7891 23.2144 11.4896C22.9141 11.19 22.5078 11.0208 22.0837 11.0187Z" fill="black"/>
<path opacity="0.2" d="M21.2089 11.8922H11.4385V33.7281H21.2089C21.6331 33.726 22.0393 33.5568 22.3396 33.2573C22.64 32.9577 22.8101 32.5519 22.8133 32.1277V13.4926C22.8101 13.0684 22.64 12.6626 22.3396 12.363C22.0393 12.0635 21.6331 11.8943 21.2089 11.8922Z" fill="black"/>
<path opacity="0.2" d="M21.2089 11.8922H11.4385V31.9812H21.2089C21.6331 31.9791 22.0393 31.81 22.3396 31.5104C22.64 31.2108 22.8101 30.805 22.8133 30.3808V13.4926C22.8101 13.0684 22.64 12.6626 22.3396 12.363C22.0393 12.0635 21.6331 11.8943 21.2089 11.8922Z" fill="black"/>
<path opacity="0.2" d="M20.3341 11.8922H11.4385V31.9812H20.3341C20.7583 31.9791 21.1645 31.81 21.4649 31.5104C21.7652 31.2108 21.9354 30.805 21.9385 30.3808V13.4926C21.9354 13.0684 21.7652 12.6626 21.4649 12.363C21.1645 12.0635 20.7583 11.8943 20.3341 11.8922Z" fill="black"/>
<path d="M4.29194 11.8922H20.3336C20.7586 11.8918 21.1663 12.0602 21.4671 12.3603C21.768 12.6604 21.9374 13.0677 21.9381 13.4926V29.5074C21.9374 29.9323 21.768 30.3396 21.4671 30.6397C21.1663 30.9398 20.7586 31.1082 20.3336 31.1078H4.29194C4.08148 31.1082 3.87302 31.067 3.67846 30.9868C3.4839 30.9065 3.30707 30.7887 3.15807 30.6401C3.00906 30.4915 2.89081 30.3149 2.81007 30.1206C2.72933 29.9262 2.68768 29.7179 2.6875 29.5074V13.4926C2.68768 13.2821 2.72933 13.0738 2.81007 12.8794C2.89081 12.6851 3.00906 12.5085 3.15807 12.3599C3.30707 12.2113 3.4839 12.0935 3.67846 12.0132C3.87302 11.933 4.08148 11.8918 4.29194 11.8922Z" fill="url(#paint0_linear_61_385)"/>
<path d="M7.65918 26.7043L11.0333 21.4852L7.94271 16.2957H10.4246L12.111 19.6187C12.2669 19.9332 12.3798 20.167 12.4308 20.3229H12.4537C12.5639 20.0702 12.6808 19.827 12.8031 19.5892L14.6064 16.301H16.8907L13.7208 21.461L16.9714 26.7084H14.5405L12.5921 23.0655C12.5016 22.9088 12.4247 22.7448 12.3623 22.575H12.3301C12.2732 22.7404 12.1975 22.8987 12.1043 23.0467L10.0981 26.7043H7.65918Z" fill="white"/>
<path d="M38.7076 4.03125H26.3115V12.7656H40.3121V5.63166C40.3119 5.4212 40.2702 5.21284 40.1895 5.01849C40.1087 4.82413 39.9905 4.6476 39.8415 4.49897C39.6925 4.35034 39.5157 4.23253 39.3211 4.15228C39.1265 4.07202 38.9181 4.0309 38.7076 4.03125Z" fill="#33C481"/>
<path d="M26.3115 21.5H40.3121V30.2344H26.3115V21.5Z" fill="#107C41"/>
<defs>
<linearGradient id="paint0_linear_61_385" x1="6.03881" y1="10.6344" x2="18.5868" y2="32.3656" gradientUnits="userSpaceOnUse">
<stop stop-color="#18884F"/>
<stop offset="0.5" stop-color="#117E43"/>
<stop offset="1" stop-color="#0B6631"/>
</linearGradient>
</defs>
</svg>
