<svg width="43" height="43" viewBox="0 0 43 43" fill="none" xmlns="http://www.w3.org/2000/svg">
<path d="M14.812 26.3017C14.4823 26.3017 14.2602 26.3339 14.1455 26.3662V28.4767C14.2817 28.509 14.4519 28.518 14.6866 28.518C15.5448 28.518 16.0733 28.0844 16.0733 27.3516C16.0733 26.6958 15.6183 26.3017 14.812 26.3017ZM21.0595 26.3232C20.7012 26.3232 20.4683 26.3554 20.3303 26.3877V31.0639C20.4683 31.0962 20.6905 31.0962 20.8911 31.0962C22.3549 31.1069 23.3081 30.3007 23.3081 28.595C23.3188 27.1079 22.4499 26.3232 21.0595 26.3232Z" fill="#E40000"/>
<path d="M25.0837 3.58334H10.7503C9.79997 3.58334 8.88853 3.96087 8.21653 4.63288C7.54452 5.30488 7.16699 6.21632 7.16699 7.16668V35.8333C7.16699 36.7837 7.54452 37.6951 8.21653 38.3671C8.88853 39.0391 9.79997 39.4167 10.7503 39.4167H32.2503C33.2007 39.4167 34.1121 39.0391 34.7841 38.3671C35.4561 37.6951 35.8337 36.7837 35.8337 35.8333V14.3333L25.0837 3.58334ZM17.0176 29.0071C16.464 29.5267 15.6469 29.7596 14.6956 29.7596C14.5111 29.7616 14.3267 29.7508 14.1437 29.7273V32.2823H12.542V25.2303C13.2648 25.1224 13.9952 25.0733 14.726 25.0833C15.724 25.0833 16.4335 25.2733 16.9119 25.6549C17.367 26.0168 17.6751 26.6098 17.6751 27.3086C17.6733 28.0109 17.4404 28.604 17.0176 29.0071ZM23.8385 31.4348C23.086 32.0601 21.9411 32.3575 20.5418 32.3575C19.7033 32.3575 19.1102 32.3038 18.7071 32.25V25.2321C19.4302 25.1265 20.1604 25.0768 20.8912 25.0833C22.2474 25.0833 23.129 25.327 23.8169 25.8466C24.5605 26.3984 25.0263 27.2781 25.0263 28.5413C25.0263 29.9083 24.5265 30.8525 23.8385 31.4348ZM30.4587 26.4629H27.7138V28.0951H30.2795V29.4102H27.7138V32.284H26.0906V25.1371H30.4587V26.4629ZM25.0837 16.125H23.292V7.16668L32.2503 16.125H25.0837Z" fill="#E40000"/>
</svg>
