<svg width="43" height="43" viewBox="0 0 43 43" fill="none" xmlns="http://www.w3.org/2000/svg">
<path d="M32.2497 12.5417H10.7497V5.375H32.2497V12.5417ZM32.2497 22.3958C32.7573 22.3958 33.1825 22.2238 33.5253 21.8798C33.8693 21.537 34.0413 21.1118 34.0413 20.6042C34.0413 20.0965 33.8693 19.6707 33.5253 19.3267C33.1825 18.9839 32.7573 18.8125 32.2497 18.8125C31.742 18.8125 31.3168 18.9839 30.974 19.3267C30.63 19.6707 30.458 20.0965 30.458 20.6042C30.458 21.1118 30.63 21.537 30.974 21.8798C31.3168 22.2238 31.742 22.3958 32.2497 22.3958ZM28.6663 34.0417V26.875H14.333V34.0417H28.6663ZM32.2497 37.625H10.7497V30.4583H3.58301V19.7083C3.58301 18.1854 4.10558 16.9092 5.15072 15.8795C6.19585 14.8487 7.46495 14.3333 8.95801 14.3333H34.0413C35.5643 14.3333 36.8411 14.8487 37.8719 15.8795C38.9015 16.9092 39.4163 18.1854 39.4163 19.7083V30.4583H32.2497V37.625Z" fill="#637381"/>
</svg>
