<svg width="30" height="30" viewBox="0 0 30 30" fill="none" xmlns="http://www.w3.org/2000/svg">
<path d="M14.4545 5.9091C15.7324 5.9091 16.9579 6.41672 17.8615 7.32031C18.7651 8.22389 19.2727 9.44942 19.2727 10.7273C19.2727 12.0051 18.7651 13.2307 17.8615 14.1342C16.9579 15.0378 15.7324 15.5455 14.4545 15.5455C13.1767 15.5455 11.9512 15.0378 11.0476 14.1342C10.144 13.2307 9.63636 12.0051 9.63636 10.7273C9.63636 9.44942 10.144 8.22389 11.0476 7.32031C11.9512 6.41672 13.1767 5.9091 14.4545 5.9091ZM14.4545 8.31819C13.8156 8.31819 13.2028 8.572 12.7511 9.02379C12.2993 9.47558 12.0454 10.0883 12.0454 10.7273C12.0454 11.3662 12.2993 11.979 12.7511 12.4308C13.2028 12.8826 13.8156 13.1364 14.4545 13.1364C15.0935 13.1364 15.7062 12.8826 16.158 12.4308C16.6098 11.979 16.8636 11.3662 16.8636 10.7273C16.8636 10.0883 16.6098 9.47558 16.158 9.02379C15.7062 8.572 15.0935 8.31819 14.4545 8.31819ZM14.4545 16.75C17.6707 16.75 24.0909 18.352 24.0909 21.5682V25.1818H4.81818V21.5682C4.81818 18.352 11.2384 16.75 14.4545 16.75ZM14.4545 19.0386C10.877 19.0386 7.10681 20.7973 7.10681 21.5682V22.8932H21.8023V21.5682C21.8023 20.7973 18.032 19.0386 14.4545 19.0386Z" fill="#637381"/>
</svg>
