<svg width="24" height="24" viewBox="0 0 24 24" fill="none" xmlns="http://www.w3.org/2000/svg">
<path d="M13.6235 20.3225L20.996 7.55249C21.1606 7.26755 21.2473 6.94431 21.2473 6.61527C21.2474 6.28622 21.1608 5.96295 20.9963 5.67796C20.8318 5.39298 20.5952 5.15631 20.3103 4.99175C20.0253 4.82719 19.7021 4.74053 19.373 4.74049H4.62703C4.29798 4.74053 3.97474 4.82719 3.68979 4.99175C3.40485 5.15631 3.16824 5.39298 3.00375 5.67796C2.83927 5.96295 2.7527 6.28622 2.75275 6.61527C2.75279 6.94431 2.83946 7.26755 3.00403 7.55249L10.3765 20.3225C10.541 20.6075 10.7777 20.8442 11.0627 21.0088C11.3476 21.1733 11.6709 21.26 12 21.26C12.3291 21.26 12.6524 21.1733 12.9374 21.0088C13.2224 20.8442 13.459 20.6075 13.6235 20.3225Z" stroke="currentColor" stroke-linecap="round" stroke-linejoin="round"/>
<path d="M4.62701 4.74049C12 4.74049 17.878 12.953 14.323 19.1105" stroke="currentColor" stroke-linecap="round" stroke-linejoin="round"/>
</svg>
