<svg width="100%" height="100%" viewBox="0 0 50 50" fill="none" xmlns="http://www.w3.org/2000/svg">
<path d="M28.3823 42.3385L43.7417 15.7344C44.0845 15.1407 44.2651 14.4673 44.2652 13.7818C44.2653 13.0963 44.0849 12.4228 43.7423 11.8291C43.3996 11.2354 42.9067 10.7423 42.313 10.3995C41.7194 10.0566 41.046 9.87612 40.3604 9.87604H9.63961C8.95409 9.87612 8.28067 10.0566 7.68704 10.3995C7.09341 10.7423 6.60048 11.2354 6.2578 11.8291C5.91512 12.4228 5.73476 13.0963 5.73486 13.7818C5.73496 14.4673 5.91551 15.1407 6.25836 15.7344L21.6177 42.3385C21.9605 42.9323 22.4535 43.4254 23.0472 43.7683C23.6409 44.1111 24.3144 44.2916 25 44.2916C25.6856 44.2916 26.3592 44.1111 26.9529 43.7683C27.5466 43.4254 28.0396 42.9323 28.3823 42.3385Z" stroke="white" stroke-linecap="round" stroke-linejoin="round"/>
<path d="M9.63953 9.87604C24.9999 9.87604 37.2458 26.9854 29.8395 39.8135" stroke="white" stroke-linecap="round" stroke-linejoin="round"/>
</svg>
