<svg width="100%" height="100%" viewBox="0 0 50 50" fill="none" xmlns="http://www.w3.org/2000/svg">
<path d="M10.649 33.7323H6.81357C6.673 33.7326 6.53377 33.7051 6.40385 33.6514C6.27394 33.5978 6.15589 33.519 6.0565 33.4196C5.95711 33.3202 5.87832 33.2021 5.82465 33.0722C5.77099 32.9423 5.7435 32.8031 5.74378 32.6625V8.05729C5.74378 7.46354 6.22086 6.9875 6.81357 6.9875H43.1865C43.7802 6.9875 44.2563 7.46459 44.2563 8.05729V32.6625C44.2563 33.2563 43.7792 33.7323 43.1865 33.7323H27.35" stroke="white" stroke-width="2" stroke-linecap="round" stroke-linejoin="round"/>
<path d="M19.1604 28.1177C22.7054 28.1177 25.5792 25.2439 25.5792 21.699C25.5792 18.154 22.7054 15.2802 19.1604 15.2802C15.6155 15.2802 12.7417 18.154 12.7417 21.699C12.7417 25.2439 15.6155 28.1177 19.1604 28.1177Z" stroke="white" stroke-width="2" stroke-linecap="round" stroke-linejoin="round"/>
<path d="M18.3573 6.9875V15.3281M30.9438 6.9875V33.7323M44.2563 20.3594H25.4459M5.74377 20.3594H12.8125M31.0156 26.9313H44.2563M8.40002 43.0125H29.6656C30.7031 25.151 7.5344 24.3885 8.40002 43.0125Z" stroke="white" stroke-width="2" stroke-linecap="round" stroke-linejoin="round"/>
</svg>
