<svg width="100%" height="100%" viewBox="0 0 50 50" fill="none" xmlns="http://www.w3.org/2000/svg">
<path fill-rule="evenodd" clip-rule="evenodd" d="M33.3333 29.1667C36.0176 29.1668 38.5983 30.2032 40.537 32.0597C42.4758 33.9162 43.6231 36.4495 43.7396 39.1313L43.75 39.5833V43.75C43.7494 44.281 43.5461 44.7917 43.1816 45.1779C42.817 45.564 42.3188 45.7963 41.7888 45.8274C41.2587 45.8586 40.7367 45.6861 40.3295 45.3453C39.9223 45.0045 39.6606 44.521 39.5979 43.9938L39.5833 43.75V39.5833C39.5834 37.9891 38.9743 36.4552 37.8807 35.2953C36.787 34.1354 35.2914 33.4373 33.7 33.3438L33.3333 33.3333H16.6667C15.0725 33.3332 13.5385 33.9423 12.3786 35.036C11.2187 36.1297 10.5206 37.6252 10.4271 39.2167L10.4167 39.5833V43.75C10.4161 44.281 10.2128 44.7917 9.84823 45.1779C9.48371 45.564 8.98551 45.7963 8.45543 45.8274C7.92534 45.8586 7.40338 45.6861 6.99618 45.3453C6.58899 45.0045 6.3273 44.521 6.26458 43.9938L6.25 43.75V39.5833C6.25016 36.899 7.28655 34.3184 9.14304 32.3796C10.9995 30.4409 13.5328 29.2936 16.2146 29.1771L16.6667 29.1667H33.3333ZM25 4.16667C27.7627 4.16667 30.4122 5.26414 32.3657 7.21764C34.3192 9.17115 35.4167 11.8207 35.4167 14.5833C35.4167 17.346 34.3192 19.9955 32.3657 21.949C30.4122 23.9025 27.7627 25 25 25C22.2373 25 19.5878 23.9025 17.6343 21.949C15.6808 19.9955 14.5833 17.346 14.5833 14.5833C14.5833 11.8207 15.6808 9.17115 17.6343 7.21764C19.5878 5.26414 22.2373 4.16667 25 4.16667ZM25 8.33334C24.1792 8.33334 23.3665 8.495 22.6082 8.80909C21.8499 9.12318 21.1609 9.58355 20.5806 10.1639C20.0002 10.7443 19.5398 11.4333 19.2258 12.1916C18.9117 12.9499 18.75 13.7626 18.75 14.5833C18.75 15.4041 18.9117 16.2168 19.2258 16.9751C19.5398 17.7334 20.0002 18.4224 20.5806 19.0028C21.1609 19.5831 21.8499 20.0435 22.6082 20.3576C23.3665 20.6717 24.1792 20.8333 25 20.8333C26.6576 20.8333 28.2473 20.1749 29.4194 19.0028C30.5915 17.8307 31.25 16.2409 31.25 14.5833C31.25 12.9257 30.5915 11.336 29.4194 10.1639C28.2473 8.99182 26.6576 8.33334 25 8.33334Z" fill="white"/>
</svg>
