<svg width="44" height="44" viewBox="0 0 44 44" fill="none" xmlns="http://www.w3.org/2000/svg">
<path d="M25.398 7.06475C25.565 6.89187 25.6574 6.66032 25.6553 6.41997C25.6532 6.17962 25.5568 5.94971 25.3869 5.77975C25.2169 5.6098 24.987 5.51339 24.7467 5.5113C24.5063 5.50921 24.2748 5.60161 24.1019 5.76859L22 7.8705L19.898 5.76859C19.8135 5.68104 19.7123 5.6112 19.6005 5.56316C19.4887 5.51512 19.3684 5.48983 19.2467 5.48877C19.1249 5.48772 19.0042 5.51091 18.8916 5.557C18.7789 5.60309 18.6766 5.67116 18.5905 5.75722C18.5044 5.84329 18.4364 5.94564 18.3903 6.0583C18.3442 6.17095 18.321 6.29166 18.3221 6.41337C18.3231 6.53509 18.3484 6.65537 18.3964 6.76721C18.4445 6.87904 18.5143 6.98019 18.6019 7.06475L20.7038 9.16667L18.6019 11.2686C18.4349 11.4415 18.3425 11.673 18.3446 11.9134C18.3467 12.1537 18.4431 12.3836 18.613 12.5536C18.783 12.7235 19.0129 12.8199 19.2533 12.822C19.4936 12.8241 19.7252 12.7317 19.898 12.5648L22 10.4628L24.1019 12.5648C24.2739 12.7366 24.5071 12.8331 24.7503 12.8331C24.9934 12.833 25.2266 12.7363 25.3985 12.5643C25.5704 12.3923 25.6669 12.1591 25.6668 11.9159C25.6667 11.6727 25.57 11.4396 25.398 11.2677L23.2961 9.16667L25.398 7.06475Z" fill="#800505"/>
<path fill-rule="evenodd" clip-rule="evenodd" d="M6.12692 24.2449L9.16659 25.2578V33C9.16659 33.1906 9.22602 33.3765 9.33659 33.5317C9.44716 33.687 9.60338 33.8039 9.78351 33.8663L21.6928 37.9885C21.8811 38.0561 22.0863 38.0597 22.2768 37.9986L22.2896 37.9949L22.3033 37.9903L34.2163 33.8663C34.3965 33.8039 34.5527 33.687 34.6633 33.5317C34.7738 33.3765 34.8333 33.1906 34.8333 33V25.2578L37.8729 24.2449C38.0131 24.1983 38.14 24.1185 38.2427 24.0122C38.3454 23.906 38.4209 23.7765 38.4628 23.6348C38.5046 23.4931 38.5116 23.3434 38.4831 23.1984C38.4547 23.0534 38.3915 22.9174 38.2992 22.8021L34.6325 18.2188C34.5238 18.0834 34.3788 17.9816 34.2145 17.9254L22.2997 13.8004C22.1055 13.7332 21.8944 13.7332 21.7002 13.8004L9.78534 17.9254C9.62101 17.9816 9.47604 18.0833 9.36734 18.2188L5.70067 22.8021C5.60831 22.9174 5.54519 23.0534 5.51671 23.1984C5.48822 23.3434 5.49521 23.4931 5.53707 23.6348C5.57894 23.7765 5.65444 23.906 5.75714 24.0122C5.85985 24.1185 5.98671 24.1983 6.12692 24.2449ZM19.5423 28.0253L21.0833 25.8253V35.838L10.9999 32.3473V25.8683L18.5019 28.369C18.6893 28.4313 18.8918 28.4314 19.0793 28.3693C19.2668 28.3072 19.4292 28.1871 19.5423 28.0253ZM12.8855 18.7917L21.9999 21.9468L31.1143 18.7917L21.9999 15.6365L12.8855 18.7917ZM24.4575 28.0253L22.9166 25.8262V35.8389L32.9999 32.3483V25.8683L25.4979 28.369C25.3105 28.4313 25.108 28.4314 24.9205 28.3693C24.7331 28.3072 24.5707 28.1871 24.4575 28.0253ZM10.3949 19.8697L7.95384 22.9213L13.0056 24.6052L18.4323 26.4138L20.5525 23.386L20.4288 23.3429L10.3949 19.8688V19.8697ZM36.046 22.9213L33.6049 19.8688L23.4473 23.386L25.5676 26.4138L36.046 22.9213Z" fill="#800505"/>
</svg>
