<svg width="44" height="44" viewBox="0 0 44 44" fill="none" xmlns="http://www.w3.org/2000/svg">
<path d="M13.75 33C14.4793 33 15.1788 33.2897 15.6945 33.8055C16.2103 34.3212 16.5 35.0207 16.5 35.75C16.5 36.4793 16.2103 37.1788 15.6945 37.6945C15.1788 38.2103 14.4793 38.5 13.75 38.5C13.0207 38.5 12.3212 38.2103 11.8055 37.6945C11.2897 37.1788 11 36.4793 11 35.75C11 35.0207 11.2897 34.3212 11.8055 33.8055C12.3212 33.2897 13.0207 33 13.75 33ZM30.25 33C30.9793 33 31.6788 33.2897 32.1945 33.8055C32.7103 34.3212 33 35.0207 33 35.75C33 36.4793 32.7103 37.1788 32.1945 37.6945C31.6788 38.2103 30.9793 38.5 30.25 38.5C29.5207 38.5 28.8212 38.2103 28.3055 37.6945C27.7897 37.1788 27.5 36.4793 27.5 35.75C27.5 35.0207 27.7897 34.3212 28.3055 33.8055C28.8212 33.2897 29.5207 33 30.25 33Z" stroke="#21A366" stroke-width="2.75"/>
<path d="M4.12321 4.20199C3.77896 4.08092 3.40071 4.10156 3.07168 4.25937C2.74264 4.41718 2.48978 4.69924 2.36871 5.04349C2.24764 5.38774 2.26828 5.76599 2.42609 6.09502C2.5839 6.42405 2.86596 6.67692 3.21021 6.79799L4.12321 4.20199ZM37.873 18.1188L39.2187 18.3957L39.2205 18.3883L37.873 18.1188ZM38.0124 12.2797L36.9234 13.1157L38.0142 12.2778L38.0124 12.2797ZM10.4647 17.8933V12.903H7.71471V17.8933H10.4647ZM4.60171 4.37066L4.12321 4.20199L3.21021 6.79799L3.68871 6.96482L4.60171 4.37066ZM20.053 29.7917H29.7734V27.0417H20.053V29.7917ZM10.4647 12.903C10.4647 11.6068 10.4665 10.5252 10.373 9.64699C10.2722 8.73582 10.0614 7.90532 9.54437 7.14999L7.27287 8.70099C7.43787 8.94299 7.56621 9.27666 7.63771 9.94216C7.71287 10.6388 7.71471 11.5463 7.71471 12.903H10.4647ZM3.68871 6.96482C4.91337 7.39566 5.71821 7.68166 6.31037 7.97499C6.86587 8.24632 7.11154 8.46632 7.27287 8.70282L9.54437 7.14999C9.02371 6.38732 8.32887 5.89966 7.52037 5.50182C6.75037 5.12416 5.76404 4.77949 4.60171 4.37066L3.68871 6.96482ZM7.71471 17.8933C7.71471 20.5572 7.74037 22.4767 7.98971 23.9433C8.25921 25.509 8.79637 26.631 9.79554 27.687L11.792 25.795C11.2054 25.1753 10.8882 24.5703 10.7012 23.4795C10.4995 22.2878 10.4647 20.6232 10.4647 17.8933H7.71471ZM20.053 27.0417C17.4552 27.0417 15.653 27.038 14.2945 26.8455C12.9837 26.6603 12.2925 26.323 11.792 25.795L9.79554 27.687C10.8845 28.8365 12.265 29.337 13.9077 29.568C15.5027 29.7953 17.5395 29.7917 20.053 29.7917V27.0417ZM9.08971 12.595H31.328V9.84499H9.09154L9.08971 12.595ZM36.5255 17.8402L35.6089 22.286L38.3039 22.8397L39.2187 18.3957L36.5255 17.8402ZM31.3317 12.595C32.901 12.595 34.2834 12.5968 35.3742 12.7178C35.915 12.7802 36.322 12.8645 36.6062 12.9635C36.9014 13.068 36.949 13.1468 36.9252 13.1157L39.105 11.44C38.6742 10.879 38.0692 10.5618 37.5174 10.3693C36.9206 10.1731 36.3039 10.044 35.6785 9.98432C34.4044 9.84316 32.8497 9.84499 31.3317 9.84499V12.595ZM39.2205 18.3883C39.5322 16.8337 39.7962 15.5283 39.8604 14.4833C39.9282 13.409 39.8054 12.3493 39.105 11.44L36.9252 13.1157C37.0389 13.2642 37.1635 13.53 37.1159 14.3147C37.0664 15.1287 36.8519 16.2158 36.5255 17.8493L39.2205 18.3883ZM29.7734 29.7917C31.1704 29.7917 32.3437 29.7935 33.2897 29.678C34.2705 29.5588 35.167 29.2948 35.948 28.6587L34.21 26.5265C33.9809 26.7135 33.6564 26.8638 32.9542 26.9482C32.2154 27.0398 31.24 27.0417 29.7734 27.0417V29.7917ZM35.6125 22.286C35.3155 23.7215 35.1175 24.6748 34.8792 25.3807C34.6537 26.0517 34.4392 26.3395 34.21 26.5265L35.948 28.6587C36.7309 28.0207 37.169 27.1975 37.4844 26.2588C37.7887 25.3568 38.0234 24.2092 38.3057 22.8415L35.6125 22.286Z" fill="#21A366"/>
<path d="M20.1667 19.8L22.2622 22L27.5001 16.5" stroke="#21A366" stroke-width="2.75" stroke-linecap="round" stroke-linejoin="round"/>
</svg>
