<svg width="44" height="44" viewBox="0 0 44 44" fill="none" xmlns="http://www.w3.org/2000/svg">
<path d="M28.875 0.0429688L44 7.60547V24.4707L41.25 23.0957V10.6777L30.25 16.1777V21.7207L27.5 23.0957V16.1777L16.5 10.6777V15.5547L13.75 14.1797V7.60547L28.875 0.0429688ZM28.875 13.793L32.6777 11.8809L22.7305 6.1875L18.1973 8.46484L28.875 13.793ZM35.6426 10.4199L39.5527 8.46484L28.875 3.11523L25.6738 4.72656L35.6426 10.4199ZM24.75 24.4707L22 25.8457V25.8242L13.75 29.9492V39.7246L22 35.5781V38.6719L12.375 43.4844L0 37.2754V22.752L12.375 16.5645L24.75 22.752V24.4707ZM11 39.7246V29.9492L2.75 25.8242V35.5781L11 39.7246ZM12.375 27.5645L20.3027 23.6113L12.375 19.6367L4.44727 23.6113L12.375 27.5645ZM24.75 27.543L34.375 22.7305L44 27.543V38.8652L34.375 43.6777L24.75 38.8652V27.543ZM33 39.918V33.3652L27.5 30.6152V37.168L33 39.918ZM41.25 37.168V30.6152L35.75 33.3652V39.918L41.25 37.168ZM34.375 30.9805L39.5527 28.3809L34.375 25.8027L29.1973 28.3809L34.375 30.9805Z" fill="#FF9900"/>
</svg>
